<?xml version="1.0" encoding="iso-8859-1"?>
<!-- Uploaded to: SVG Repo, www.svgrepo.com, Generator: SVG Repo Mixer Tools -->
<!DOCTYPE svg PUBLIC "-//W3C//DTD SVG 1.1//EN" "http://www.w3.org/Graphics/SVG/1.1/DTD/svg11.dtd">
<svg height="800px" width="800px" version="1.1" id="Capa_1" xmlns="http://www.w3.org/2000/svg" xmlns:xlink="http://www.w3.org/1999/xlink" 
	 viewBox="0 0 323.147 323.147" xml:space="preserve">
<path style="fill:#231F20;" d="M323.116,263.775l-0.161-10.18c-0.945-59.696-31.505-105.338-88.377-131.993
	c-25.607-12.002-50.864-17.419-66.707-19.82V58.7c0-2.709-1.461-5.207-3.821-6.536c-2.36-1.329-5.253-1.282-7.569,0.124
	L3.609,145.054C1.369,146.413,0,148.844,0,151.465c0,2.621,1.369,5.052,3.609,6.412l152.871,92.765
	c2.317,1.406,5.212,1.453,7.569,0.124c2.36-1.329,3.821-3.827,3.821-6.536v-41.707c38.673,3.752,100.603,19.625,121.669,59.499
	l2.642,5.003c1.23,2.328,3.591,3.84,6.22,3.985l16.811,0.926c0.138,0.007,0.275,0.011,0.412,0.011c0.007,0,0.013,0,0.02,0h0.001
	c4.142,0,7.5-3.358,7.5-7.5C323.147,264.22,323.135,263.996,323.116,263.775z M151.726,166.629c-0.564,0-1.098,0.004-1.616,0.012
	l-9.851,0.147c-4.098,0.061-7.388,3.401-7.388,7.499v21.088l-72.361-43.91l72.365-43.913l0.006,19.332
	c0.001,3.985,3.117,7.273,7.097,7.487l9.445,0.509c0.357,0.021,36.084,2.243,70.785,18.64
	c23.769,11.231,41.404,26.225,52.694,44.751C231.005,173.668,177.676,166.629,151.726,166.629z"/>
</svg>