<svg width="26" height="22" viewBox="0 0 26 22" fill="none" xmlns="http://www.w3.org/2000/svg">
<path d="M20.8 17.6C21.4896 17.6 22.1509 17.8318 22.6385 18.2444C23.1261 18.6569 23.4 19.2165 23.4 19.8C23.4 20.3835 23.1261 20.9431 22.6385 21.3556C22.1509 21.7682 21.4896 22 20.8 22C20.1104 22 19.4491 21.7682 18.9615 21.3556C18.4739 20.9431 18.2 20.3835 18.2 19.8C18.2 18.579 19.357 17.6 20.8 17.6ZM0 0H4.251L5.473 2.2H24.7C25.0448 2.2 25.3754 2.31589 25.6192 2.52218C25.863 2.72847 26 3.00826 26 3.3C26 3.487 25.935 3.674 25.844 3.85L21.19 10.967C20.748 11.638 19.89 12.1 18.915 12.1H9.23L8.06 13.893L8.021 14.025C8.021 14.0979 8.05524 14.1679 8.11619 14.2195C8.17714 14.271 8.2598 14.3 8.346 14.3H23.4V16.5H7.8C7.11044 16.5 6.44912 16.2682 5.96152 15.8556C5.47393 15.4431 5.2 14.8835 5.2 14.3C5.2 13.915 5.317 13.552 5.512 13.244L7.28 10.549L2.6 2.2H0V0ZM7.8 17.6C8.48956 17.6 9.15088 17.8318 9.63848 18.2444C10.1261 18.6569 10.4 19.2165 10.4 19.8C10.4 20.3835 10.1261 20.9431 9.63848 21.3556C9.15088 21.7682 8.48956 22 7.8 22C7.11044 22 6.44912 21.7682 5.96152 21.3556C5.47393 20.9431 5.2 20.3835 5.2 19.8C5.2 18.579 6.357 17.6 7.8 17.6ZM19.5 9.9L23.114 4.4H6.682L9.75 9.9H19.5Z" fill="black"/>
</svg>
