<svg width="20" height="20" viewBox="0 0 20 20" fill="none" xmlns="http://www.w3.org/2000/svg">
<path d="M12.9255 14.3178C11.316 15.5663 9.29051 16.1554 7.26138 15.9649C5.23225 15.7744 3.3521 14.8188 2.00376 13.2926C0.65541 11.7664 -0.0597431 9.78441 0.00391209 7.75014C0.0675673 5.71587 0.905244 3.7823 2.34638 2.34315C3.78751 0.903998 5.72374 0.0674743 7.76082 0.00390671C9.7979 -0.0596609 11.7827 0.654508 13.311 2.001C14.8393 3.34749 15.7962 5.22505 15.9869 7.25139C16.1776 9.27772 15.5878 11.3005 14.3375 12.9078L19.6949 18.2378L18.2729 19.6578L12.9356 14.3178H12.9255ZM8.01879 13.9978C8.80781 13.9978 9.5891 13.8426 10.3181 13.541C11.047 13.2395 11.7094 12.7975 12.2673 12.2404C12.8252 11.6832 13.2678 11.0218 13.5697 10.2939C13.8717 9.5659 14.0271 8.78569 14.0271 7.99776C14.0271 7.20982 13.8717 6.42961 13.5697 5.70165C13.2678 4.9737 12.8252 4.31227 12.2673 3.75511C11.7094 3.19796 11.047 2.75601 10.3181 2.45448C9.5891 2.15295 8.80781 1.99775 8.01879 1.99775C6.4253 1.99775 4.89707 2.6299 3.7703 3.75511C2.64353 4.88033 2.01052 6.40646 2.01052 7.99776C2.01052 9.58905 2.64353 11.1152 3.7703 12.2404C4.89707 13.3656 6.4253 13.9978 8.01879 13.9978Z" fill="black"/>
</svg>
